<?xml version="1.0" encoding="iso-8859-1"?>
<!-- Uploaded to: SVG Repo, www.svgrepo.com, Generator: SVG Repo Mixer Tools -->
<svg fill="#000000" height="800px" width="800px" version="1.1" id="Capa_1" xmlns="http://www.w3.org/2000/svg" xmlns:xlink="http://www.w3.org/1999/xlink" 
	 viewBox="0 0 56.67 56.67" xml:space="preserve">
<g>
	<path d="M53.174,23.673h-4.007C47.039,14.125,38.523,6.986,28.335,6.986S9.63,14.125,7.504,23.673H3.497
		C1.566,23.673,0,25.237,0,27.168V29.5c0,1.931,1.566,3.495,3.497,3.495h4.007c2.126,9.55,10.644,16.688,20.831,16.688
		c10.188,0,18.704-7.139,20.832-16.688h4.007c1.934,0,3.496-1.564,3.496-3.495v-2.332C56.67,25.239,55.106,23.673,53.174,23.673z
		 M28.335,12.775c6.956,0,12.859,4.588,14.845,10.896H13.492C15.475,17.363,21.38,12.775,28.335,12.775z M28.335,43.894
		c-6.955,0-12.86-4.59-14.844-10.897h29.688C41.194,39.304,35.291,43.894,28.335,43.894z"/>
	<g>
	</g>
	<g>
	</g>
	<g>
	</g>
	<g>
	</g>
	<g>
	</g>
	<g>
	</g>
	<g>
	</g>
	<g>
	</g>
	<g>
	</g>
	<g>
	</g>
	<g>
	</g>
	<g>
	</g>
	<g>
	</g>
	<g>
	</g>
	<g>
	</g>
</g>
</svg>